<?xml version="1.0" standalone="no"?>
<!DOCTYPE svg PUBLIC "-//W3C//DTD SVG 20010904//EN"
 "http://www.w3.org/TR/2001/REC-SVG-20010904/DTD/svg10.dtd">
<svg version="1.0" xmlns="http://www.w3.org/2000/svg"
 width="106.000000pt" height="106.000000pt" viewBox="0 0 106.000000 106.000000"
 preserveAspectRatio="xMidYMid meet">
<metadata>
Created by potrace 1.11, written by Peter Selinger 2001-2013
</metadata>
<g transform="translate(0.000000,106.000000) scale(0.100000,-0.100000)"
fill="#000000" stroke="none">
<path d="M632 864 c-7 -8 -17 -12 -23 -9 -5 4 -9 0 -9 -7 0 -8 -9 -20 -20 -28
-11 -8 -20 -22 -20 -30 0 -9 -9 -26 -20 -38 -11 -12 -20 -27 -20 -34 -1 -8 -5
-7 -14 5 -7 9 -25 17 -40 17 -16 0 -26 5 -26 15 0 9 -6 12 -15 9 -8 -4 -17 1
-21 10 -3 9 -10 13 -15 10 -5 -3 -9 2 -9 10 0 9 -4 16 -10 16 -5 0 -10 6 -10
13 0 22 -67 14 -88 -11 -11 -12 -27 -22 -36 -22 -9 0 -16 -6 -16 -14 0 -9 -7
-13 -20 -11 -13 2 -20 -2 -20 -11 0 -8 -7 -14 -15 -14 -9 0 -26 -9 -38 -20
-12 -11 -33 -29 -46 -39 -22 -16 -23 -20 -10 -37 11 -16 27 -20 84 -21 41 -1
75 3 83 10 8 6 48 12 88 13 59 1 74 -1 74 -13 0 -8 -4 -11 -10 -8 -5 3 -10 -1
-10 -9 0 -9 -4 -16 -10 -16 -5 0 -10 -9 -10 -19 0 -11 -4 -23 -10 -26 -5 -3
-10 -14 -10 -25 0 -23 -29 -35 -36 -15 -9 22 -179 22 -188 0 -3 -8 -12 -12
-21 -9 -10 4 -15 0 -15 -11 0 -9 -4 -13 -10 -10 -5 3 -10 -1 -10 -9 0 -9 -4
-16 -10 -16 -5 0 -10 -7 -10 -16 0 -8 -5 -12 -10 -9 -6 4 -10 -5 -10 -19 0
-14 -4 -26 -10 -26 -14 0 -12 -82 3 -101 16 -21 127 -24 127 -4 0 8 8 12 20
10 13 -2 20 2 20 11 0 14 20 21 20 7 0 -5 18 -28 40 -53 22 -24 40 -48 40 -53
0 -4 5 -5 10 -2 6 3 10 -1 10 -9 0 -10 9 -16 26 -16 26 0 54 20 54 40 0 6 5 8
10 5 6 -3 10 0 10 7 0 8 9 20 20 28 11 8 20 20 20 28 0 7 5 10 10 7 6 -3 10 1
10 9 0 9 9 16 20 16 11 0 20 7 20 16 0 8 5 12 10 9 6 -3 10 1 10 10 0 9 5 13
10 10 6 -3 10 1 10 9 0 11 9 16 29 16 16 0 31 6 35 15 3 8 12 12 21 9 9 -4 15
0 15 9 0 10 7 15 20 12 13 -2 20 2 20 11 0 8 7 14 16 14 8 0 21 6 28 13 9 8
53 12 154 11 115 -1 142 2 142 13 0 8 5 11 10 8 6 -3 10 1 10 9 0 9 5 16 10
16 6 0 10 27 10 61 0 37 -4 58 -10 54 -5 -3 -10 1 -10 9 0 13 -12 16 -58 16
-52 0 -60 -3 -72 -25 -7 -13 -17 -22 -22 -19 -4 3 -8 -2 -8 -10 0 -9 -9 -16
-20 -16 -11 0 -20 7 -20 16 0 8 5 12 10 9 6 -3 10 1 10 10 0 9 5 13 10 10 6
-3 10 1 10 9 0 9 5 16 10 16 18 0 11 60 -10 82 -11 12 -20 28 -20 35 0 18 -51
74 -61 67 -5 -3 -12 2 -15 10 -8 22 -133 22 -152 0z"/>
</g>
</svg>
